HIERARCHY
ROOT Hips
{
  OFFSET 0 0 0
  CHANNELS 6 Xposition Yposition Zposition Zrotation Yrotation Xrotation
  JOINT LeftThigh
  {
    OFFSET 8.409438 0 -5.917753
    CHANNELS 3 Zrotation Yrotation Xrotation
    JOINT LeftLeg
    {
      OFFSET 0 0 -42.358652
      CHANNELS 3 Zrotation Yrotation Xrotation
      JOINT LeftFoot
      {
        OFFSET 0 0 -39.357303
        CHANNELS 3 Zrotation Yrotation Xrotation
      }
    }
  }
  JOINT RightThigh
  {
    OFFSET -8.409438 0 -5.917753
    CHANNELS 3 Zrotation Yrotation Xrotation
    JOINT RightLeg
    {
      OFFSET 0 0 -42.358652
      CHANNELS 3 Zrotation Yrotation Xrotation
      JOINT RightFoot
      {
        OFFSET 0 0 -39.357303
        CHANNELS 3 Zrotation Yrotation Xrotation
      }
    }
  }
  JOINT SpineLow
  {
    OFFSET 0 0 4.719101
    CHANNELS 3 Zrotation Yrotation Xrotation
    JOINT SpineMid
    {
      OFFSET 0 0 12.899191
      CHANNELS 3 Zrotation Yrotation Xrotation
      JOINT Chest
      {
        OFFSET 0 0 12.899191
        CHANNELS 3 Zrotation Yrotation Xrotation
        JOINT LeftShoulder
        {
          OFFSET 7.550562 1.41573 9.438202
          CHANNELS 3 Zrotation Yrotation Xrotation
          JOINT LeftArm
          {
            OFFSET 9.155056 0 4.247191
            CHANNELS 3 Zrotation Yrotation Xrotation
            JOINT LeftForearm
            {
              OFFSET 0 0 25.771955
              CHANNELS 3 Zrotation Yrotation Xrotation
              JOINT LeftHand
              {
                OFFSET 0 0 25.197169
                CHANNELS 3 Zrotation Yrotation Xrotation
              }
            }
          }
        }
        JOINT RightShoulder
        {
          OFFSET -7.550562 1.41573 9.438202
          CHANNELS 3 Zrotation Yrotation Xrotation
          JOINT RightArm
          {
            OFFSET -9.155056 0 4.247191
            CHANNELS 3 Zrotation Yrotation Xrotation
            JOINT RightForearm
            {
              OFFSET 0 0 -25.771955
              CHANNELS 3 Zrotation Yrotation Xrotation
              JOINT RightHand
              {
                OFFSET 0 0 -25.197169
                CHANNELS 3 Zrotation Yrotation Xrotation
              }
            }
          }
        }
        JOINT Neck
        {
          OFFSET 0 0 15.101124
          CHANNELS 3 Zrotation Yrotation Xrotation
          JOINT Head
          {
            OFFSET 0 0 11.325843
            CHANNELS 3 Zrotation Yrotation Xrotation
            End Site
            {
              OFFSET 0 0 14.157303
            }
          }
        }
      }
    }
  }
}
MOTION
Frames: 10
Frame Time: 0.0
0.0  101.685394  0.0  105.859414  -46.429752  175.291612  25.005804  -36.748635  -1.642217  0.693947  13.677179  54.452894  -6.967014  -12.342113  -8.210397  -12.014241  28.132279  -30.565447  2.324372  -1.189732  21.126355  30.945998  15.189597  5.674941  1.790607  3.317643  3.410631  5.382292  8.787885  9.616214  5.382292  8.787885  9.616215  11.512663  15.657668  11.795834  160.15312  40.310243  162.56784  -46.392934  22.869978  71.542523  37.014087  -37.491428  56.650219  24.472563  -2.535714  20.40292  100.108539  51.948882  15.71181  -13.763532  -25.304411  -103.991923  77.392428  42.191151  42.941835  8.679935  15.45535  4.455524  6.355081  11.657672  3.097433  
0.0  101.685394  0.0  103.56112  -46.627064  177.094241  27.513344  -37.614585  -4.687675  1.955407  12.705384  57.594187  -7.884908  -12.296618  -8.839232  -12.586973  28.375359  -30.198337  2.281089  -1.324084  21.311463  30.513388  15.421083  5.787441  1.713571  3.266599  3.403697  5.161991  8.660799  9.581782  5.161991  8.660799  9.581782  11.669785  15.780061  12.167039  160.170392  39.786725  162.776954  -46.493534  22.251291  71.426398  37.431991  -37.934453  56.096149  24.344585  -2.715142  20.986202  100.240263  52.473497  15.995816  -13.381812  -25.618998  -104.009042  77.485657  41.986894  43.134539  8.720213  15.446463  4.699438  6.378968  11.654854  3.278413  
0.0  101.685394  0.0  101.35232  -46.81165  178.785822  30.392981  -38.088902  -7.72586  3.257223  10.435984  60.692241  -9.561958  -12.231121  -9.567108  -12.882137  28.624943  -29.697129  2.08258  -1.385283  21.527387  30.051607  15.502674  5.863016  1.646036  3.210451  3.419967  4.969971  8.516467  9.612076  4.969972  8.516468  9.612076  11.847418  15.916764  12.314893  160.09584  39.521544  163.146565  -46.446209  21.380446  71.285474  37.454321  -38.097022  55.35237  24.36503  -2.877529  21.501193  100.856284  52.994147  16.721617  -13.329868  -25.839434  -104.022493  77.520162  41.669377  43.301302  8.744087  15.453342  4.833057  6.393245  11.662152  3.377297  
0.0  101.685394  0.0  98.970951  -47.019826  -179.327974  33.392061  -38.17912  -10.816761  4.078625  7.677321  63.485487  -11.463142  -12.107768  -10.213968  -13.215104  28.869386  -29.205614  2.049377  -1.453127  21.820342  29.256576  15.370378  5.791732  1.534264  3.094447  3.38317  4.640717  8.219631  9.485831  4.640717  8.219631  9.485831  12.350593  16.319518  12.836183  160.530251  38.348944  163.419224  -45.950517  20.327851  72.395098  37.442111  -38.034005  54.806888  24.523258  -2.9294  22.234203  102.020622  53.289132  17.852271  -13.518456  -26.02822  -103.994726  77.577193  41.293855  43.501144  8.937172  15.608117  5.112146  6.527795  11.784041  3.577521  
0.0  101.685394  0.0  96.342875  -47.208168  -177.081697  36.276954  -37.805037  -13.947458  4.408603  4.953906  65.972503  -13.321206  -11.981715  -10.697449  -13.967826  28.967159  -28.943515  2.259893  -1.575538  21.835387  28.653979  15.158777  5.964903  1.478368  3.035256  3.41902  4.482639  8.06387  9.571931  4.482639  8.06387  9.571932  12.21099  16.387951  12.660709  160.61661  38.013057  163.959116  -45.799314  19.517488  72.631847  37.402837  -37.898612  54.551178  24.329643  -3.174105  22.18693  103.165683  53.480317  18.964568  -13.798759  -26.138901  -103.98201  77.540363  40.911796  43.667962  8.753361  15.539302  4.979796  6.395189  11.728849  3.484886  
0.0  101.685394  0.0  93.552794  -47.37178  -174.559571  38.629203  -36.988659  -16.947615  4.489245  2.630458  68.375389  -14.89075  -11.916683  -11.071847  -15.182212  28.580109  -28.84863  2.990058  -1.505563  21.654002  27.959587  14.869847  6.170244  1.421619  2.964459  3.422346  4.316481  7.879036  9.567935  4.316481  7.879036  9.567935  12.115563  16.444505  12.616281  160.717934  37.580163  164.579351  -45.539385  18.440216  73.125845  37.286562  -37.790304  54.597668  24.087187  -3.489179  22.103833  104.193618  53.529907  20.034755  -13.960351  -26.215309  -104.068797  77.48198  40.540598  43.835603  8.564271  15.43575  4.828266  6.259566  11.647366  3.378656  
0.0  101.685394  0.0  90.76671  -47.537201  -172.063871  39.78962  -36.063803  -19.462194  4.79955  0.970123  70.973975  -15.941712  -11.854199  -11.42623  -16.068916  28.157952  -28.368048  3.861243  -1.402257  21.364408  27.251193  14.716003  6.33982  1.381707  2.878425  3.447029  4.196552  7.648752  9.623505  4.196553  7.648752  9.623504  11.958955  16.563861  12.491764  160.796549  37.231747  165.333561  -45.240541  17.054563  73.617502  37.054021  -37.825315  54.822355  23.834989  -3.787551  21.934351  105.018288  53.552386  21.119572  -13.96497  -26.264314  -104.315977  77.5887  40.131482  44.05511  8.318884  15.312717  4.544058  6.085521  11.549072  3.175179  
0.0  101.685394  0.0  87.933144  -47.717464  -169.548972  39.67163  -35.271341  -21.674705  5.518393  0.130403  73.935468  -16.45255  -11.719782  -11.746991  -16.4178  27.619737  -27.465234  4.490504  -1.11233  21.011923  26.615791  14.59144  6.509474  1.352869  2.784857  3.475595  4.106105  7.396114  9.690635  4.106106  7.396115  9.690636  11.798936  16.741321  12.304551  160.778515  36.978206  166.205057  -44.910849  15.2144  74.040516  36.806456  -38.143187  54.946683  23.60433  -4.15853  21.77113  105.663966  53.58062  22.266432  -13.867339  -26.151702  -104.630079  77.675423  39.730734  44.203324  8.066466  15.109374  4.201553  5.908519  11.38994  2.929591  
0.0  101.685394  0.0  84.89759  -47.877417  -166.892715  38.563382  -34.963793  -23.829204  6.73338  0.335631  77.238393  -16.536125  -11.541551  -11.957642  -16.165531  27.040448  -26.137485  4.783792  -0.667748  20.681079  26.091954  14.503147  6.708018  1.310554  2.678915  3.494354  3.975673  7.112468  9.728722  3.975673  7.112468  9.728722  11.621753  16.976766  11.993393  160.637407  36.696825  166.767616  -44.454743  13.058613  74.613088  36.64757  -38.870056  54.763265  23.430086  -4.549472  21.770128  106.139677  53.692214  23.426749  -13.751184  -25.98056  -105.002488  77.867814  39.302404  44.294486  7.843891  14.828023  3.880288  5.753818  11.173071  2.700081  
0.0  101.685394  0.0  82.000423  -48.063972  -164.244997  37.173896  -35.110015  -25.983897  8.452487  1.502801  80.595734  -16.324946  -11.365391  -12.027219  -15.196594  26.326101  -24.625719  4.708284  -0.094008  20.461661  25.790059  14.436919  6.997379  1.278985  2.571626  3.478862  3.870921  6.825743  9.674371  3.870921  6.825743  9.674371  11.49156  17.14194  11.687886  160.377044  36.433477  167.305185  -43.998189  10.676072  75.111634  36.432257  -39.778547  54.388961  23.322542  -4.951008  22.007547  106.53486  53.959814  24.613423  -13.626157  -25.666551  -105.344507  77.865979  38.924797  44.217396  7.827156  14.492442  3.718066  5.749004  10.919128  2.584765  
